<svg id="Layer_1" data-name="Layer 1" xmlns="http://www.w3.org/2000/svg" viewBox="0 0 33.61 33.61"><defs><style>.cls-1{fill:none;stroke:#fff;stroke-miterlimit:10;}.cls-2{fill:#fff;}</style></defs><circle class="cls-1" cx="16.81" cy="16.81" r="16.31"/><path class="cls-2" d="M9.41,13.33a3.54,3.54,0,0,1,.2-.48,13.85,13.85,0,0,1,1.94-2.63A17.61,17.61,0,0,1,13,8.9a1.1,1.1,0,0,1,1.69.25A22.46,22.46,0,0,1,17,13a6.56,6.56,0,0,1,.23.62,1,1,0,0,1-.22,1c-.3.32-.63.61-1,.9s-.45.37-.22.9a8.53,8.53,0,0,0,5,4.8.33.33,0,0,0,.46-.11c.28-.35.58-.69.89-1a1.13,1.13,0,0,1,1.39-.31c.67.31,1.34.63,2,1s1.47,1,2.19,1.45a1.38,1.38,0,0,1,.57.84.75.75,0,0,1-.07.57,4.39,4.39,0,0,1-.42.61,16.13,16.13,0,0,1-3.58,3,1.84,1.84,0,0,1-1.41.15,13.49,13.49,0,0,1-4.68-2,21.58,21.58,0,0,1-7.14-7.54,12,12,0,0,1-1.41-3.7C9.49,13.88,9.46,13.63,9.41,13.33Z" transform="translate(-1.08 -1.2)"/></svg>