<svg id="Layer_1" data-name="Layer 1" xmlns="http://www.w3.org/2000/svg" viewBox="0 0 345.11 93.24"><defs><style>.cls-1{fill:#676767;}.cls-2{fill:#0d5eae;}.cls-3{fill:#cc7247;}.cls-4{fill:#d06a38;}.cls-5{fill:#d1693a;}.cls-6{fill:#ee8d5f;}.cls-7{fill:#2d689a;}.cls-8{fill:#d56c4a;}.cls-9{fill:#d16836;}.cls-10{fill:#d6693a;}.cls-11{fill:#d3734a;}.cls-12{fill:#cd6c3b;}.cls-13{fill:#faecd7;}.cls-14{fill:#f05414;}.cls-15{fill:#ce6835;}.cls-16{fill:#fceed5;}.cls-17{fill:#fcead3;}.cls-18{fill:#db6d48;}.cls-19{fill:#d27245;}</style></defs><path class="cls-1" d="M191.79,191.57c-1.28.52-1.36,1.5-1.66,2.23q-7.57,18.42-15.07,36.88a2.18,2.18,0,0,1-.11.27c-2.07,3.8-5.59,1.08-8.36,1.78a2.7,2.7,0,0,1-3.6-1.87c-5-12.53-10.19-25-15.32-37.44-.24-.58-.55-1.13-.91-1.88-.78,1.26-.48,2.34-.49,3.35,0,11.75-.05,23.51,0,35.27,0,2-.51,2.77-2.59,2.65-2.81-.15-5.63-.12-8.45,0-1.71.07-2.41-.37-2.41-2.23q.07-30.75,0-61.5c0-1.78.51-2.36,2.32-2.29,3.59.13,7.19.09,10.78,0a2.74,2.74,0,0,1,3,2.05Q158.28,191,167.83,213c.28.65.17,1.79,1.18,1.78s1-1.12,1.25-1.78c6.34-14.68,12.68-29.36,18.91-44.09a2.87,2.87,0,0,1,3.22-2.11,96.34,96.34,0,0,0,9.91,0c2.39-.15,2.92.74,2.91,3-.09,17.88-.06,35.75-.07,53.63,0,2.43-.09,4.86,0,7.29.08,1.71-.62,2.19-2.21,2.15-2.82-.09-5.64-.16-8.45,0-2.21.14-2.8-.63-2.78-2.8.1-11.94,0-23.9,0-35.85Z" transform="translate(-3.16 -142.02)"/><path class="cls-2" d="M37.41,232.25c-10.32,4.46-20.37,4-29.95-2a9.22,9.22,0,0,1-4.28-8.75,6.88,6.88,0,0,1,9.16-6.45,62,62,0,0,1,6.15,2.57c7.44,3.2,12.45.17,12.5-7.86.12-19.52.06-39.05.08-58.57,0-5.34,3-8.31,8.07-8.63,4-.25,8.72,4.11,8.66,8.62-.29,19.91-.11,39.82-.15,59.74a20.36,20.36,0,0,1-.9,7.14A9.9,9.9,0,0,0,44.92,222C44.07,226.59,40.67,229.37,37.41,232.25Z" transform="translate(-3.16 -142.02)"/><path class="cls-1" d="M336.07,205.17c0,3.79,0,7.57,0,11.35,0,3.54,1.43,4.95,4.89,5.13,2.2.11,5-.89,6.45.5s.49,4.43.53,6.73c.08,4.56.35,3.86-3.83,3.89-2.53,0-5.05,0-7.57-.08-7.8-.27-13.14-5.27-13.47-13.16-.34-8.33-.34-16.69-.25-25,0-2.56-.65-3.63-3.24-3.2-2.39.4-3.43-.55-3-3a17.59,17.59,0,0,0,0-2.62c0-4.75,0-4.8,4.59-5.29,1.29-.14,1.64-.68,1.63-1.84,0-2.91.05-5.82,0-8.73,0-1.53.33-2.37,2.08-2.33,3.1.09,6.21.09,9.31,0,1.59-.05,2,.64,1.95,2.08-.07,2.62.11,5.25-.06,7.86-.14,2.2.4,3.22,2.85,3,2.21-.23,4.46,0,6.69-.08,1.69-.08,2.38.41,2.45,2.26.3,8.75.35,8.86-8.46,8.69-2.73-.06-3.8.51-3.56,3.45C336.28,198.17,336.06,201.68,336.07,205.17Z" transform="translate(-3.16 -142.02)"/><path class="cls-1" d="M295.7,188.2c3.73-4.54,7.5-7.45,12.53-8.36,3.28-.6,3.57-.39,3.58,2.83,0,2.82-.05,5.63,0,8.45.05,1.77-.45,2.82-2.47,2.51a9.3,9.3,0,0,0-1.75,0c-7.8.23-11.75,4.21-11.82,12-.08,8.15-.1,16.31,0,24.46,0,2-.42,2.81-2.56,2.69-3-.17-6-.09-9,0-1.4,0-1.86-.5-1.86-1.87q0-24.33,0-48.65c0-1.52.53-2.05,2-2,3,.08,6,.1,9,0,1.83-.06,2.42.7,2.32,2.42C295.63,184.2,295.7,185.74,295.7,188.2Z" transform="translate(-3.16 -142.02)"/><path class="cls-3" d="M113.78,232.12c2.37-4.7,1.74-9.76,1.75-14.73q0-32.32,0-64.64c0-7.13-2.3-9.41-9.4-9.29l-1.74,0c-.18-.15-.24-.31-.18-.46s.12-.23.18-.23c7.48-2.72,12.52,2,12.45,8.38-.28,24.64-.11,49.28-.1,73.92C116.75,227.87,116.5,230.52,113.78,232.12Z" transform="translate(-3.16 -142.02)"/><path class="cls-4" d="M93.41,171.41c-2.72-.25-5.43-.1-8.22-.59-1.86-.33-4.71.36-7.06,1.16-3.57,1.22-7,2.58-10.5,4.05a17.1,17.1,0,0,1,10.6-5.77C83.34,169.35,88.52,168.8,93.41,171.41Z" transform="translate(-3.16 -142.02)"/><path class="cls-5" d="M72.77,232.13c5.18,1.72,10.54.86,15.82,1.18,2.23.13,3.83-2.14,6.11-1.21C87.39,236.58,80.08,236,72.77,232.13Z" transform="translate(-3.16 -142.02)"/><path class="cls-6" d="M104.4,142.8v.69a8.26,8.26,0,0,0-4,7.88c.33,7-.43,14,.4,20.93.12,1-.06,2.32-1.1,2.39a3.69,3.69,0,0,1-3.45-2.14c3.65,1.09,3.61,1.09,3.59-3.05,0-6.58,0-13.15,0-19.72A7,7,0,0,1,104.4,142.8Z" transform="translate(-3.16 -142.02)"/><path class="cls-7" d="M37.41,232.25c.12-1.66,1.52-2.47,2.57-3.3,2.73-2.15,3.8-5.08,4.36-8.27.27-1.52,1.45-1.89,2.41-2.61C45.89,224.28,43.42,229.43,37.41,232.25Z" transform="translate(-3.16 -142.02)"/><path class="cls-8" d="M58.34,192.35c-.26,3.4-.44,6.87-.59,10.2a81.38,81.38,0,0,0,.77,10.73c.2.48-.07.63-.48.67a36.35,36.35,0,0,1-1.16-14.29C57.22,197.21,56.83,194.58,58.34,192.35Z" transform="translate(-3.16 -142.02)"/><path class="cls-9" d="M58,214l.48-.67c1.33.12,2,.71,2.23,2.15.46,2.5,2.17,4.63,2.35,7.25-.18.27-.38.3-.6,0l-.51,0c-1.38-1.25-1.88-3-2.43-4.64h0c-1-.77-.61-2.06-1.14-3Z" transform="translate(-3.16 -142.02)"/><path class="cls-10" d="M67.63,176c.16,3.26-2.64,4.29-4.53,6q-.48-.3-.09-.72C64.1,179.15,65.2,177,67.63,176Z" transform="translate(-3.16 -142.02)"/><path class="cls-11" d="M67.51,228.65c2.67-.38,3.77,1.51,4.88,3.39C70.28,231.6,68.86,230.17,67.51,228.65Z" transform="translate(-3.16 -142.02)"/><path class="cls-12" d="M63,181.3l.09.72c-.2,1.55.57,3.78-2.38,3.41A7.26,7.26,0,0,1,63,181.3Z" transform="translate(-3.16 -142.02)"/><path class="cls-13" d="M59.56,218A10.81,10.81,0,0,1,62,222.68C59.31,222.11,59.44,220.08,59.56,218Z" transform="translate(-3.16 -142.02)"/><path class="cls-11" d="M62.5,222.73l.6,0c1.64.69,2.56,1.8,2.2,3.68A7.3,7.3,0,0,1,62.5,222.73Z" transform="translate(-3.16 -142.02)"/><path class="cls-13" d="M58.43,215a4.26,4.26,0,0,1,1.14,3C55.62,218.4,59,216,58.43,215Z" transform="translate(-3.16 -142.02)"/><path class="cls-14" d="M116.15,224.25c-.19-4-.05-8-.05-11.94q0-30.7,0-61.42c0-5.19-2.87-8-8-8a17.11,17.11,0,0,0-3.2.13c-3,1.22-4.74,3.48-4.76,6.62-.06,7.34-.28,14.68.13,22,0,.87.27,1.82-.66,2.34s-1.37-.44-2-.72a3.79,3.79,0,0,1-1.25-.71c-.9-.56-1.72-1.27-2.89-1.14-9.28-2.31-17.92-1-25.78,4.62h0c-1.14,2.36-3.2,4-4.82,5.95-.52,1.26-.61,2.78-2.09,3.46a19,19,0,0,0-2.38,6.92C57,199.2,57.24,206.08,58,213a11.07,11.07,0,0,1,2.77,4.57,36.32,36.32,0,0,0,2.05,5.05c.93,1.2,2.08,2.25,2.53,3.77a6.91,6.91,0,0,1,2.21,2.29c2,.54,3.19,2.34,4.88,3.39l.17.11.21,0c1.81.57,3.44,1.56,5.45,1.71,5.61.42,11.18.75,16.48-1.74,1.74-.17,2.51-1.71,3.62-2.71.9-.8,1.28-1.22,2.13.13,3.54,5.59,8.08,6.42,13.33,2.6A12.33,12.33,0,0,0,116.15,224.25ZM96.87,213.4c-.82,1.48-1.63,3-3.35,3.58a30.67,30.67,0,0,1-5.7,1.87c-4.84.8-8.24-1.59-11.24-4.95-4.06-5-4.93-13.77-1.91-19.19a.22.22,0,0,0,.1-.31,8.52,8.52,0,0,1,2.35-4.22,3.83,3.83,0,0,1,2.26-2.41,7.41,7.41,0,0,1,4.25-2.27c8.07-.45,11.73,1.59,14.45,8C99.39,200.25,99.48,206.91,96.87,213.4Z" transform="translate(-3.16 -142.02)"/><path class="cls-15" d="M74.67,194.71c-.64,4.26-1.73,8.48-.46,12.82.62,2.11,1.05,4.29,2.64,6a15.38,15.38,0,0,1,2.68,3.9c-3.43.07-3.5-3.12-4.83-5-3.29-4.79-2.19-10.27-2.35-15.57C72.3,195,73.23,194.65,74.67,194.71Z" transform="translate(-3.16 -142.02)"/><path class="cls-16" d="M96.87,213.4c1.8-6.54.92-13.25,1.21-19.89,2.57,5.05,2.22,10.27.78,15.5C98.44,210.55,98.3,212.29,96.87,213.4Z" transform="translate(-3.16 -142.02)"/><path class="cls-17" d="M79.53,217.39c-.82-1.35-2.39-2.19-2.68-3.9,1.71.3,2.39,2,3.56,2.92,3.2,2.61,6.38,2,9.68.84a9.54,9.54,0,0,1,3.43-.27c-.08.31-.15.62-.22.92-3.23,2.4-6.79,2.38-10.47,1.39C81.48,219.1,80.67,218,79.53,217.39Z" transform="translate(-3.16 -142.02)"/><path class="cls-18" d="M82.83,219.29c3.58.23,7.15.34,10.47-1.39.17,1.79-1.56,1.4-2.39,1.92C88.93,221.06,84.2,220.59,82.83,219.29Z" transform="translate(-3.16 -142.02)"/><path class="cls-19" d="M77.14,190.17c-.29,1.68-1.41,2.91-2.37,4.23C74.46,192.37,74.79,190.71,77.14,190.17Z" transform="translate(-3.16 -142.02)"/><path class="cls-19" d="M83.63,185.5l-4.26,2.27C80,185.58,81.62,185.14,83.63,185.5Z" transform="translate(-3.16 -142.02)"/><path class="cls-19" d="M79.38,187.77a6.16,6.16,0,0,1-2.26,2.41C76.7,188.28,77.47,187.49,79.38,187.77Z" transform="translate(-3.16 -142.02)"/><path class="cls-1" d="M269.49,187.33c0-7,0-7-7.16-7-6.14,0-6.14,0-6.34,6.21,0,.09-.05.19-.11.42-1.07,0-1.24-.8-1.69-1.23-10.68-10.34-28.79-7.39-35.72,5.8-4.53,8.61-4.77,17.56-1.65,26.51,4.24,12.14,15.36,17.85,27.85,15,4.44-1,7.68-3.73,11.36-7.14,0,1.92.09,3.24,0,4.54-.17,1.92.6,2.54,2.5,2.44a61.72,61.72,0,0,1,8.16,0c2.4.2,2.89-.73,2.88-3C269.45,215.69,269.49,201.51,269.49,187.33Zm-31,34.22c-6.67-2-11.18-9.33-10.16-17.26,1-8.18,7.2-13.4,15.05-13,6.08.32,13.51,6.67,12.72,15.36C257,216.27,247.59,224.26,238.45,221.55Z" transform="translate(-3.16 -142.02)"/></svg>