<svg id="Layer_1" data-name="Layer 1" xmlns="http://www.w3.org/2000/svg" viewBox="0 0 322.47 82.22"><defs><style>.cls-1{fill:#fed5bf;}.cls-2{fill:#1274bf;}.cls-3{fill:#fe6c00;}.cls-4{fill:#fe6c01;}</style></defs><path class="cls-1" d="M335.67,165.13a3.39,3.39,0,0,1,.64,0v67.6a3.33,3.33,0,0,1-.63,0c-1.48-1.31-1.28-3.1-1.29-4.77q-.06-29.06,0-58.12C334.4,168.22,334.21,166.44,335.67,165.13Z" transform="translate(-13.84 -158.61)"/><path class="cls-2" d="M109.9,206.19c0,4.16,0,8.33,0,12.49-.18,11.49-5.85,18.46-17.2,20.95A35,35,0,0,1,72,238.34c-8.34-3.26-12.56-9.65-12.76-18.41-.22-9.42,0-18.85.11-28.27.07-4.73,2.43-7.61,6.34-8.15,5-.7,8.71,2.49,8.79,7.91.13,8.81-.07,17.63.09,26.44.15,8.29,8.35,12.87,15.38,8.74,3.56-2.1,4.75-5.38,4.74-9.32,0-8.45-.06-16.9,0-25.34,0-4.49,2-7.31,5.35-8.25,5-1.4,9.49,1.7,9.73,7.08.23,5.13,0,10.28,0,15.42Z" transform="translate(-13.84 -158.61)"/><path class="cls-2" d="M152.5,188.39c-2,1,0,1.89.25,2.56a6.43,6.43,0,0,1-1.27,7.16c-1.93,2.18-4.4,2.54-7,1.53-2-.74-3.82-1.67-5.75-2.44a14.2,14.2,0,0,0-5.34-1.25c-2.37,0-4.52.42-5.18,3.09s1.16,3.85,3.14,4.7c3.83,1.65,7.77,3,11.57,4.74,5,2.23,9.66,5,11.23,10.8,2.54,9.41-3.94,18.59-14.76,20.75a32.49,32.49,0,0,1-22.1-3.41c-5.26-2.78-7.1-6.57-5.29-10.18,2.13-4.25,6.18-5.14,11.75-2.27,3.63,1.87,7.17,3.8,11.45,3.37,2.19-.21,4.25-.78,4.72-3.27s-1.16-3.64-3-4.5q-3.67-1.68-7.49-3.05a49.92,49.92,0,0,1-8-3.66c-5.16-3-8.29-7.09-8.14-13.33A15.16,15.16,0,0,1,121.54,186c8.79-4.75,17.69-4,26.53.18.63.3,1.43,2.36,2.5.34C151.9,186.44,152.52,187.09,152.5,188.39Z" transform="translate(-13.84 -158.61)"/><path class="cls-2" d="M54.85,194.71c0,7.22,0,14.44,0,21.66a50.17,50.17,0,0,1-.58,8.41c-2,10.83-11.58,17.31-23.3,15.85-4.14-.52-8.23-1.34-11.91-3.52A10.22,10.22,0,0,1,14.12,231a6.34,6.34,0,0,1,7.94-8c2,.56,3.87,1.54,5.81,2.28,7.21,2.78,10.89.33,10.91-7.38,0-16.77,0-33.53,0-50.3,0-5.07,2.74-8,7.4-8.28s8.07,2.2,8.3,6.86c.38,7.69.25,15.4.33,23.11C54.87,191,54.85,192.88,54.85,194.71Z" transform="translate(-13.84 -158.61)"/><path class="cls-2" d="M152.5,188.39l-1.93-1.88c-2.44-5.35,0-9.93,5.77-10,3.18,0,3.67-1.25,3.47-3.88a40.4,40.4,0,0,1,.08-6.6,7.52,7.52,0,0,1,14.94-.17,22,22,0,0,1,.15,2.57c0,2.32-.63,5,.26,6.89,1.11,2.42,4.19.66,6.36,1.32,3.59,1.1,5.18,2.84,5.12,6.54-.07,3.43-2,5.55-5.56,6.19-1.91.36-4.46-.78-5.63.67-1.44,1.8-.5,4.49-.52,6.78-.06,11.51,0,23,0,34.53,0,3.44-1,6.31-4.36,7.84-5.24,2.41-10.61-1-10.77-7-.2-8.08-.08-16.16-.09-24.24,0-4.9-.12-9.8,0-14.69.09-2.65-.31-4.27-3.51-3.78A4.76,4.76,0,0,1,152.5,188.39Z" transform="translate(-13.84 -158.61)"/><path class="cls-3" d="M335.67,165.13q0,33.83,0,67.66c-1.82,5-4.63,7-8.86,6.4s-6.69-3.7-6.71-8.71q-.09-31.5,0-63c0-4.95,2.55-8.1,6.67-8.75S333.83,160.15,335.67,165.13Z" transform="translate(-13.84 -158.61)"/><path class="cls-3" d="M258.09,210.75c0,6.49,0,13,0,19.46,0,5.71-3,9.1-7.86,9.06-4.69,0-7.66-3.36-7.68-8.87q-.07-19.46,0-38.91c0-5.35,3.2-8.76,7.84-8.7s7.65,3.43,7.69,8.87C258.13,198,258.09,204.39,258.09,210.75Z" transform="translate(-13.84 -158.61)"/><path class="cls-4" d="M259,168.53a8.48,8.48,0,0,1-8.74,8.48,8.4,8.4,0,1,1,8.74-8.48Z" transform="translate(-13.84 -158.61)"/><path class="cls-3" d="M238.14,167.31c0-5.47-3.21-8.73-7.92-8.65s-7.56,3.42-7.59,8.92c0,6.33,0,12.65,0,19-1.52.14-2.23-.86-3.15-1.37a24,24,0,0,0-28.29,3.52c-11.32,11.05-11.47,32.84-.3,44.06,9.11,9.17,22.29,9.57,31.5.78,2.87,4.86,6,6.49,10.17,5.37,3.58-1,5.59-3.78,5.6-8.47Q238.24,198.9,238.14,167.31Zm-18.61,54a11,11,0,0,1-18.14.48c-4.28-5.66-4.41-15.23-.28-21a11.22,11.22,0,0,1,18.86.39,18,18,0,0,1,2.66,9.51A19.87,19.87,0,0,1,219.53,221.27Z" transform="translate(-13.84 -158.61)"/><path class="cls-3" d="M315.61,189.47c-.06-5.18-4.62-7.92-9.62-6.32-2.69.86-4.15,2.88-5.24,5.32-12-12-29.27-5-35.75,5.57-4.82,7.88-5.81,16.3-3.89,25.08,4.21,19.3,26.64,27.69,39.73,14.1.44.94.67,1.49,1,2a7.42,7.42,0,0,0,8.68,3.84c3.53-.79,5.18-3.24,5.2-6.64C315.73,218.12,315.79,203.79,315.61,189.47ZM286.9,226.21l-.37,0c-7.06-.78-11.83-8.77-10.66-17.86,1.05-8.15,6.86-13.23,14.06-12.28,5.05.66,9,5.17,10.06,11.65a25.28,25.28,0,0,1,.25,3C300.27,220.61,294.68,226.84,286.9,226.21Z" transform="translate(-13.84 -158.61)"/></svg>