<svg id="Layer_1" data-name="Layer 1" xmlns="http://www.w3.org/2000/svg" viewBox="0 0 36 36"><defs><style>.cls-1{fill:none;stroke:#fff;stroke-miterlimit:10;}.cls-2{fill:#fff;}</style></defs><circle class="cls-1" cx="18.47" cy="18" r="16.31"/><path class="cls-2" d="M27.81,22.43l-.06.24A2.74,2.74,0,0,1,25,24.86H13.47c-.63,0-1.25,0-1.87,0a2.66,2.66,0,0,1-2.42-2.54c0-2.42,0-4.84,0-7.29l.19.11,8.4,5.12a1.26,1.26,0,0,0,1.46,0c2.8-1.72,5.61-3.42,8.41-5.13l.18-.1Z"/><path class="cls-2" d="M9.25,13.26a2.74,2.74,0,0,1,2.06-2.08,4.17,4.17,0,0,1,.71-.07H25a2.77,2.77,0,0,1,2.72,2,.21.21,0,0,1-.11.3l-8.93,5.45a.22.22,0,0,1-.29,0l-9-5.49Z"/></svg>